<mxfile host="app.diagrams.net" modified="2024-01-10T01:35:21.241Z" agent="Mozilla/5.0 (Windows NT 10.0; Win64; x64) AppleWebKit/537.36 (KHTML, like Gecko) Chrome/120.0.0.0 Safari/537.36" etag="MLeBCD-eAduMmU7wW57A" version="22.1.18" type="github">
  <diagram id="C5RBs43oDa-KdzZeNtuy" name="Page-1">
    <mxGraphModel dx="2390" dy="805" grid="1" gridSize="10" guides="1" tooltips="1" connect="1" arrows="1" fold="1" page="1" pageScale="1" pageWidth="827" pageHeight="1169" math="0" shadow="0">
      <root>
        <mxCell id="WIyWlLk6GJQsqaUBKTNV-0" />
        <mxCell id="WIyWlLk6GJQsqaUBKTNV-1" parent="WIyWlLk6GJQsqaUBKTNV-0" />
        <mxCell id="WIyWlLk6GJQsqaUBKTNV-2" value="" style="rounded=0;html=1;jettySize=auto;orthogonalLoop=1;fontSize=11;endArrow=block;endFill=0;endSize=8;strokeWidth=1;shadow=0;labelBackgroundColor=none;edgeStyle=orthogonalEdgeStyle;" parent="WIyWlLk6GJQsqaUBKTNV-1" source="WIyWlLk6GJQsqaUBKTNV-3" target="WIyWlLk6GJQsqaUBKTNV-6" edge="1">
          <mxGeometry relative="1" as="geometry" />
        </mxCell>
        <mxCell id="WIyWlLk6GJQsqaUBKTNV-3" value="dominar instrumento" style="rounded=1;whiteSpace=wrap;html=1;fontSize=12;glass=0;strokeWidth=1;shadow=0;" parent="WIyWlLk6GJQsqaUBKTNV-1" vertex="1">
          <mxGeometry x="155" y="50" width="120" height="40" as="geometry" />
        </mxCell>
        <mxCell id="WIyWlLk6GJQsqaUBKTNV-4" value="si" style="rounded=0;html=1;jettySize=auto;orthogonalLoop=1;fontSize=11;endArrow=block;endFill=0;endSize=8;strokeWidth=1;shadow=0;labelBackgroundColor=none;edgeStyle=orthogonalEdgeStyle;" parent="WIyWlLk6GJQsqaUBKTNV-1" source="WIyWlLk6GJQsqaUBKTNV-6" edge="1">
          <mxGeometry x="0.0122" y="15" relative="1" as="geometry">
            <mxPoint y="-1" as="offset" />
            <mxPoint x="215" y="290" as="targetPoint" />
          </mxGeometry>
        </mxCell>
        <mxCell id="WIyWlLk6GJQsqaUBKTNV-5" value="No" style="edgeStyle=orthogonalEdgeStyle;rounded=0;html=1;jettySize=auto;orthogonalLoop=1;fontSize=11;endArrow=block;endFill=0;endSize=8;strokeWidth=1;shadow=0;labelBackgroundColor=none;" parent="WIyWlLk6GJQsqaUBKTNV-1" source="WIyWlLk6GJQsqaUBKTNV-6" target="WIyWlLk6GJQsqaUBKTNV-7" edge="1">
          <mxGeometry y="10" relative="1" as="geometry">
            <mxPoint as="offset" />
          </mxGeometry>
        </mxCell>
        <mxCell id="WIyWlLk6GJQsqaUBKTNV-6" value="tiene tecnicas musicales?" style="rhombus;whiteSpace=wrap;html=1;shadow=0;fontFamily=Helvetica;fontSize=12;align=center;strokeWidth=1;spacing=6;spacingTop=-4;" parent="WIyWlLk6GJQsqaUBKTNV-1" vertex="1">
          <mxGeometry x="160" y="140" width="110" height="110" as="geometry" />
        </mxCell>
        <mxCell id="WIyWlLk6GJQsqaUBKTNV-7" value="buscar tecnicas" style="rounded=1;whiteSpace=wrap;html=1;fontSize=12;glass=0;strokeWidth=1;shadow=0;" parent="WIyWlLk6GJQsqaUBKTNV-1" vertex="1">
          <mxGeometry x="-70" y="175" width="120" height="40" as="geometry" />
        </mxCell>
        <mxCell id="WIyWlLk6GJQsqaUBKTNV-8" value="si" style="rounded=0;html=1;jettySize=auto;orthogonalLoop=1;fontSize=11;endArrow=block;endFill=0;endSize=8;strokeWidth=1;shadow=0;labelBackgroundColor=none;edgeStyle=orthogonalEdgeStyle;" parent="WIyWlLk6GJQsqaUBKTNV-1" edge="1">
          <mxGeometry x="0.3333" y="20" relative="1" as="geometry">
            <mxPoint as="offset" />
            <mxPoint x="215" y="370" as="sourcePoint" />
            <mxPoint x="215" y="430" as="targetPoint" />
          </mxGeometry>
        </mxCell>
        <mxCell id="WIyWlLk6GJQsqaUBKTNV-12" value="empezar a practicar" style="rounded=1;whiteSpace=wrap;html=1;fontSize=12;glass=0;strokeWidth=1;shadow=0;" parent="WIyWlLk6GJQsqaUBKTNV-1" vertex="1">
          <mxGeometry x="-60" y="325" width="120" height="40" as="geometry" />
        </mxCell>
        <mxCell id="8PgQvkUx6LocQkc4Ikcf-22" style="edgeStyle=orthogonalEdgeStyle;rounded=0;orthogonalLoop=1;jettySize=auto;html=1;exitX=0;exitY=0.5;exitDx=0;exitDy=0;entryX=1;entryY=0.5;entryDx=0;entryDy=0;" edge="1" parent="WIyWlLk6GJQsqaUBKTNV-1" source="8PgQvkUx6LocQkc4Ikcf-1" target="WIyWlLk6GJQsqaUBKTNV-12">
          <mxGeometry relative="1" as="geometry" />
        </mxCell>
        <mxCell id="8PgQvkUx6LocQkc4Ikcf-1" value="practica &lt;br&gt;a &lt;br&gt;diario?" style="rhombus;whiteSpace=wrap;html=1;shadow=0;fontFamily=Helvetica;fontSize=12;align=center;strokeWidth=1;spacing=6;spacingTop=-4;" vertex="1" parent="WIyWlLk6GJQsqaUBKTNV-1">
          <mxGeometry x="160" y="290" width="110" height="110" as="geometry" />
        </mxCell>
        <mxCell id="8PgQvkUx6LocQkc4Ikcf-8" style="edgeStyle=orthogonalEdgeStyle;rounded=0;orthogonalLoop=1;jettySize=auto;html=1;exitX=0.5;exitY=1;exitDx=0;exitDy=0;" edge="1" parent="WIyWlLk6GJQsqaUBKTNV-1" source="8PgQvkUx6LocQkc4Ikcf-4">
          <mxGeometry relative="1" as="geometry">
            <mxPoint x="215" y="580" as="targetPoint" />
          </mxGeometry>
        </mxCell>
        <mxCell id="8PgQvkUx6LocQkc4Ikcf-25" style="edgeStyle=orthogonalEdgeStyle;rounded=0;orthogonalLoop=1;jettySize=auto;html=1;exitX=1;exitY=0.5;exitDx=0;exitDy=0;" edge="1" parent="WIyWlLk6GJQsqaUBKTNV-1" source="8PgQvkUx6LocQkc4Ikcf-4" target="8PgQvkUx6LocQkc4Ikcf-5">
          <mxGeometry relative="1" as="geometry" />
        </mxCell>
        <mxCell id="8PgQvkUx6LocQkc4Ikcf-4" value="practica con&amp;nbsp;&lt;br&gt;compañeros?" style="rhombus;whiteSpace=wrap;html=1;shadow=0;fontFamily=Helvetica;fontSize=12;align=center;strokeWidth=1;spacing=6;spacingTop=-4;" vertex="1" parent="WIyWlLk6GJQsqaUBKTNV-1">
          <mxGeometry x="160" y="430" width="110" height="110" as="geometry" />
        </mxCell>
        <mxCell id="8PgQvkUx6LocQkc4Ikcf-5" value="practicar con compañeros" style="rounded=1;whiteSpace=wrap;html=1;fontSize=12;glass=0;strokeWidth=1;shadow=0;" vertex="1" parent="WIyWlLk6GJQsqaUBKTNV-1">
          <mxGeometry x="380" y="465" width="120" height="40" as="geometry" />
        </mxCell>
        <mxCell id="8PgQvkUx6LocQkc4Ikcf-16" style="edgeStyle=orthogonalEdgeStyle;rounded=0;orthogonalLoop=1;jettySize=auto;html=1;exitX=0.5;exitY=1;exitDx=0;exitDy=0;" edge="1" parent="WIyWlLk6GJQsqaUBKTNV-1" source="8PgQvkUx6LocQkc4Ikcf-9" target="8PgQvkUx6LocQkc4Ikcf-15">
          <mxGeometry relative="1" as="geometry" />
        </mxCell>
        <mxCell id="8PgQvkUx6LocQkc4Ikcf-26" style="edgeStyle=orthogonalEdgeStyle;rounded=0;orthogonalLoop=1;jettySize=auto;html=1;exitX=1;exitY=0.5;exitDx=0;exitDy=0;" edge="1" parent="WIyWlLk6GJQsqaUBKTNV-1" source="8PgQvkUx6LocQkc4Ikcf-9" target="8PgQvkUx6LocQkc4Ikcf-12">
          <mxGeometry relative="1" as="geometry" />
        </mxCell>
        <mxCell id="8PgQvkUx6LocQkc4Ikcf-9" value="improvisa?" style="rhombus;whiteSpace=wrap;html=1;shadow=0;fontFamily=Helvetica;fontSize=12;align=center;strokeWidth=1;spacing=6;spacingTop=-4;" vertex="1" parent="WIyWlLk6GJQsqaUBKTNV-1">
          <mxGeometry x="160" y="580" width="110" height="110" as="geometry" />
        </mxCell>
        <mxCell id="8PgQvkUx6LocQkc4Ikcf-11" value="si" style="text;html=1;align=center;verticalAlign=middle;resizable=0;points=[];autosize=1;strokeColor=none;fillColor=none;" vertex="1" parent="WIyWlLk6GJQsqaUBKTNV-1">
          <mxGeometry x="245" y="540" width="30" height="30" as="geometry" />
        </mxCell>
        <mxCell id="8PgQvkUx6LocQkc4Ikcf-12" value="empezar a improvisar" style="rounded=1;whiteSpace=wrap;html=1;fontSize=12;glass=0;strokeWidth=1;shadow=0;" vertex="1" parent="WIyWlLk6GJQsqaUBKTNV-1">
          <mxGeometry x="390" y="615" width="120" height="40" as="geometry" />
        </mxCell>
        <mxCell id="8PgQvkUx6LocQkc4Ikcf-29" style="edgeStyle=orthogonalEdgeStyle;rounded=0;orthogonalLoop=1;jettySize=auto;html=1;exitX=0;exitY=0.5;exitDx=0;exitDy=0;" edge="1" parent="WIyWlLk6GJQsqaUBKTNV-1" source="8PgQvkUx6LocQkc4Ikcf-15">
          <mxGeometry relative="1" as="geometry">
            <mxPoint x="80" y="805" as="targetPoint" />
          </mxGeometry>
        </mxCell>
        <mxCell id="8PgQvkUx6LocQkc4Ikcf-32" style="edgeStyle=orthogonalEdgeStyle;rounded=0;orthogonalLoop=1;jettySize=auto;html=1;exitX=1;exitY=0.5;exitDx=0;exitDy=0;" edge="1" parent="WIyWlLk6GJQsqaUBKTNV-1" source="8PgQvkUx6LocQkc4Ikcf-15">
          <mxGeometry relative="1" as="geometry">
            <mxPoint x="610" y="805" as="targetPoint" />
          </mxGeometry>
        </mxCell>
        <mxCell id="8PgQvkUx6LocQkc4Ikcf-15" value="crea musica?" style="rhombus;whiteSpace=wrap;html=1;shadow=0;fontFamily=Helvetica;fontSize=12;align=center;strokeWidth=1;spacing=6;spacingTop=-4;" vertex="1" parent="WIyWlLk6GJQsqaUBKTNV-1">
          <mxGeometry x="160" y="750" width="110" height="110" as="geometry" />
        </mxCell>
        <mxCell id="8PgQvkUx6LocQkc4Ikcf-17" value="empezar a crear musica" style="rounded=1;whiteSpace=wrap;html=1;fontSize=12;glass=0;strokeWidth=1;shadow=0;" vertex="1" parent="WIyWlLk6GJQsqaUBKTNV-1">
          <mxGeometry x="-50" y="785" width="120" height="40" as="geometry" />
        </mxCell>
        <mxCell id="8PgQvkUx6LocQkc4Ikcf-20" value="si" style="text;html=1;align=center;verticalAlign=middle;resizable=0;points=[];autosize=1;strokeColor=none;fillColor=none;" vertex="1" parent="WIyWlLk6GJQsqaUBKTNV-1">
          <mxGeometry x="225" y="698" width="30" height="30" as="geometry" />
        </mxCell>
        <mxCell id="8PgQvkUx6LocQkc4Ikcf-23" value="no" style="text;html=1;align=center;verticalAlign=middle;resizable=0;points=[];autosize=1;strokeColor=none;fillColor=none;" vertex="1" parent="WIyWlLk6GJQsqaUBKTNV-1">
          <mxGeometry x="90" y="298" width="40" height="30" as="geometry" />
        </mxCell>
        <mxCell id="8PgQvkUx6LocQkc4Ikcf-27" value="no" style="text;html=1;align=center;verticalAlign=middle;resizable=0;points=[];autosize=1;strokeColor=none;fillColor=none;" vertex="1" parent="WIyWlLk6GJQsqaUBKTNV-1">
          <mxGeometry x="310" y="440" width="40" height="30" as="geometry" />
        </mxCell>
        <mxCell id="8PgQvkUx6LocQkc4Ikcf-28" value="no" style="text;html=1;align=center;verticalAlign=middle;resizable=0;points=[];autosize=1;strokeColor=none;fillColor=none;" vertex="1" parent="WIyWlLk6GJQsqaUBKTNV-1">
          <mxGeometry x="310" y="590" width="40" height="30" as="geometry" />
        </mxCell>
        <mxCell id="8PgQvkUx6LocQkc4Ikcf-30" value="no" style="text;html=1;align=center;verticalAlign=middle;resizable=0;points=[];autosize=1;strokeColor=none;fillColor=none;" vertex="1" parent="WIyWlLk6GJQsqaUBKTNV-1">
          <mxGeometry x="100" y="760" width="40" height="30" as="geometry" />
        </mxCell>
        <mxCell id="8PgQvkUx6LocQkc4Ikcf-35" style="edgeStyle=orthogonalEdgeStyle;rounded=0;orthogonalLoop=1;jettySize=auto;html=1;exitX=1;exitY=0.5;exitDx=0;exitDy=0;entryX=0;entryY=0.5;entryDx=0;entryDy=0;" edge="1" parent="WIyWlLk6GJQsqaUBKTNV-1" source="8PgQvkUx6LocQkc4Ikcf-31" target="8PgQvkUx6LocQkc4Ikcf-34">
          <mxGeometry relative="1" as="geometry" />
        </mxCell>
        <mxCell id="8PgQvkUx6LocQkc4Ikcf-36" style="edgeStyle=orthogonalEdgeStyle;rounded=0;orthogonalLoop=1;jettySize=auto;html=1;exitX=0.5;exitY=0;exitDx=0;exitDy=0;" edge="1" parent="WIyWlLk6GJQsqaUBKTNV-1" source="8PgQvkUx6LocQkc4Ikcf-31">
          <mxGeometry relative="1" as="geometry">
            <mxPoint x="665" y="670" as="targetPoint" />
          </mxGeometry>
        </mxCell>
        <mxCell id="8PgQvkUx6LocQkc4Ikcf-31" value="esta en conciertos?" style="rhombus;whiteSpace=wrap;html=1;shadow=0;fontFamily=Helvetica;fontSize=12;align=center;strokeWidth=1;spacing=6;spacingTop=-4;" vertex="1" parent="WIyWlLk6GJQsqaUBKTNV-1">
          <mxGeometry x="610" y="750" width="110" height="110" as="geometry" />
        </mxCell>
        <mxCell id="8PgQvkUx6LocQkc4Ikcf-33" value="si" style="text;html=1;align=center;verticalAlign=middle;resizable=0;points=[];autosize=1;strokeColor=none;fillColor=none;" vertex="1" parent="WIyWlLk6GJQsqaUBKTNV-1">
          <mxGeometry x="399" y="750" width="30" height="30" as="geometry" />
        </mxCell>
        <mxCell id="8PgQvkUx6LocQkc4Ikcf-34" value="organizar un concierto" style="rounded=1;whiteSpace=wrap;html=1;fontSize=12;glass=0;strokeWidth=1;shadow=0;" vertex="1" parent="WIyWlLk6GJQsqaUBKTNV-1">
          <mxGeometry x="790" y="785" width="120" height="40" as="geometry" />
        </mxCell>
        <mxCell id="8PgQvkUx6LocQkc4Ikcf-37" value="no" style="text;html=1;align=center;verticalAlign=middle;resizable=0;points=[];autosize=1;strokeColor=none;fillColor=none;" vertex="1" parent="WIyWlLk6GJQsqaUBKTNV-1">
          <mxGeometry x="740" y="758" width="40" height="30" as="geometry" />
        </mxCell>
        <mxCell id="8PgQvkUx6LocQkc4Ikcf-42" style="edgeStyle=orthogonalEdgeStyle;rounded=0;orthogonalLoop=1;jettySize=auto;html=1;exitX=1;exitY=0.5;exitDx=0;exitDy=0;entryX=0;entryY=0.5;entryDx=0;entryDy=0;" edge="1" parent="WIyWlLk6GJQsqaUBKTNV-1" source="8PgQvkUx6LocQkc4Ikcf-38" target="8PgQvkUx6LocQkc4Ikcf-40">
          <mxGeometry relative="1" as="geometry" />
        </mxCell>
        <mxCell id="8PgQvkUx6LocQkc4Ikcf-44" style="edgeStyle=orthogonalEdgeStyle;rounded=0;orthogonalLoop=1;jettySize=auto;html=1;exitX=0.5;exitY=0;exitDx=0;exitDy=0;" edge="1" parent="WIyWlLk6GJQsqaUBKTNV-1" source="8PgQvkUx6LocQkc4Ikcf-38">
          <mxGeometry relative="1" as="geometry">
            <mxPoint x="665" y="490" as="targetPoint" />
          </mxGeometry>
        </mxCell>
        <mxCell id="8PgQvkUx6LocQkc4Ikcf-38" value="participa en eventos?" style="rhombus;whiteSpace=wrap;html=1;shadow=0;fontFamily=Helvetica;fontSize=12;align=center;strokeWidth=1;spacing=6;spacingTop=-4;" vertex="1" parent="WIyWlLk6GJQsqaUBKTNV-1">
          <mxGeometry x="610" y="560" width="110" height="110" as="geometry" />
        </mxCell>
        <mxCell id="8PgQvkUx6LocQkc4Ikcf-39" value="si" style="text;html=1;align=center;verticalAlign=middle;resizable=0;points=[];autosize=1;strokeColor=none;fillColor=none;" vertex="1" parent="WIyWlLk6GJQsqaUBKTNV-1">
          <mxGeometry x="665" y="688" width="30" height="30" as="geometry" />
        </mxCell>
        <mxCell id="8PgQvkUx6LocQkc4Ikcf-40" value="participar en eventos musicales" style="rounded=1;whiteSpace=wrap;html=1;fontSize=12;glass=0;strokeWidth=1;shadow=0;" vertex="1" parent="WIyWlLk6GJQsqaUBKTNV-1">
          <mxGeometry x="780" y="595" width="120" height="40" as="geometry" />
        </mxCell>
        <mxCell id="8PgQvkUx6LocQkc4Ikcf-43" value="no" style="text;html=1;align=center;verticalAlign=middle;resizable=0;points=[];autosize=1;strokeColor=none;fillColor=none;" vertex="1" parent="WIyWlLk6GJQsqaUBKTNV-1">
          <mxGeometry x="720" y="568" width="40" height="30" as="geometry" />
        </mxCell>
        <mxCell id="8PgQvkUx6LocQkc4Ikcf-48" style="edgeStyle=orthogonalEdgeStyle;rounded=0;orthogonalLoop=1;jettySize=auto;html=1;entryX=1;entryY=0.5;entryDx=0;entryDy=0;" edge="1" parent="WIyWlLk6GJQsqaUBKTNV-1" source="8PgQvkUx6LocQkc4Ikcf-45" target="WIyWlLk6GJQsqaUBKTNV-6">
          <mxGeometry relative="1" as="geometry" />
        </mxCell>
        <mxCell id="8PgQvkUx6LocQkc4Ikcf-50" style="edgeStyle=orthogonalEdgeStyle;rounded=0;orthogonalLoop=1;jettySize=auto;html=1;exitX=0.5;exitY=0;exitDx=0;exitDy=0;entryX=0.5;entryY=1;entryDx=0;entryDy=0;" edge="1" parent="WIyWlLk6GJQsqaUBKTNV-1" source="8PgQvkUx6LocQkc4Ikcf-45" target="8PgQvkUx6LocQkc4Ikcf-47">
          <mxGeometry relative="1" as="geometry" />
        </mxCell>
        <mxCell id="8PgQvkUx6LocQkc4Ikcf-45" value="es apoyado?" style="rhombus;whiteSpace=wrap;html=1;shadow=0;fontFamily=Helvetica;fontSize=12;align=center;strokeWidth=1;spacing=6;spacingTop=-4;" vertex="1" parent="WIyWlLk6GJQsqaUBKTNV-1">
          <mxGeometry x="610" y="380" width="110" height="110" as="geometry" />
        </mxCell>
        <mxCell id="8PgQvkUx6LocQkc4Ikcf-46" value="si" style="text;html=1;align=center;verticalAlign=middle;resizable=0;points=[];autosize=1;strokeColor=none;fillColor=none;" vertex="1" parent="WIyWlLk6GJQsqaUBKTNV-1">
          <mxGeometry x="625" y="498" width="30" height="30" as="geometry" />
        </mxCell>
        <mxCell id="8PgQvkUx6LocQkc4Ikcf-52" style="edgeStyle=orthogonalEdgeStyle;rounded=0;orthogonalLoop=1;jettySize=auto;html=1;exitX=1;exitY=0.5;exitDx=0;exitDy=0;" edge="1" parent="WIyWlLk6GJQsqaUBKTNV-1" source="8PgQvkUx6LocQkc4Ikcf-47">
          <mxGeometry relative="1" as="geometry">
            <mxPoint x="830" y="255" as="targetPoint" />
          </mxGeometry>
        </mxCell>
        <mxCell id="8PgQvkUx6LocQkc4Ikcf-56" style="edgeStyle=orthogonalEdgeStyle;rounded=0;orthogonalLoop=1;jettySize=auto;html=1;exitX=0.5;exitY=0;exitDx=0;exitDy=0;" edge="1" parent="WIyWlLk6GJQsqaUBKTNV-1" source="8PgQvkUx6LocQkc4Ikcf-47">
          <mxGeometry relative="1" as="geometry">
            <mxPoint x="665" y="140" as="targetPoint" />
          </mxGeometry>
        </mxCell>
        <mxCell id="8PgQvkUx6LocQkc4Ikcf-47" value="ya lanzo musica oficial?" style="rhombus;whiteSpace=wrap;html=1;shadow=0;fontFamily=Helvetica;fontSize=12;align=center;strokeWidth=1;spacing=6;spacingTop=-4;" vertex="1" parent="WIyWlLk6GJQsqaUBKTNV-1">
          <mxGeometry x="610" y="200" width="110" height="110" as="geometry" />
        </mxCell>
        <mxCell id="8PgQvkUx6LocQkc4Ikcf-49" value="no" style="text;html=1;align=center;verticalAlign=middle;resizable=0;points=[];autosize=1;strokeColor=none;fillColor=none;" vertex="1" parent="WIyWlLk6GJQsqaUBKTNV-1">
          <mxGeometry x="500" y="368" width="40" height="30" as="geometry" />
        </mxCell>
        <mxCell id="8PgQvkUx6LocQkc4Ikcf-51" value="si" style="text;html=1;align=center;verticalAlign=middle;resizable=0;points=[];autosize=1;strokeColor=none;fillColor=none;" vertex="1" parent="WIyWlLk6GJQsqaUBKTNV-1">
          <mxGeometry x="625" y="318" width="30" height="30" as="geometry" />
        </mxCell>
        <mxCell id="8PgQvkUx6LocQkc4Ikcf-53" value="subir musica" style="rounded=1;whiteSpace=wrap;html=1;fontSize=12;glass=0;strokeWidth=1;shadow=0;" vertex="1" parent="WIyWlLk6GJQsqaUBKTNV-1">
          <mxGeometry x="830" y="235" width="120" height="40" as="geometry" />
        </mxCell>
        <mxCell id="8PgQvkUx6LocQkc4Ikcf-54" value="no" style="text;html=1;align=center;verticalAlign=middle;resizable=0;points=[];autosize=1;strokeColor=none;fillColor=none;" vertex="1" parent="WIyWlLk6GJQsqaUBKTNV-1">
          <mxGeometry x="750" y="198" width="40" height="30" as="geometry" />
        </mxCell>
        <mxCell id="8PgQvkUx6LocQkc4Ikcf-55" value="instrumento dominado" style="rounded=1;whiteSpace=wrap;html=1;fontSize=12;glass=0;strokeWidth=1;shadow=0;" vertex="1" parent="WIyWlLk6GJQsqaUBKTNV-1">
          <mxGeometry x="600" y="90" width="120" height="40" as="geometry" />
        </mxCell>
        <mxCell id="8PgQvkUx6LocQkc4Ikcf-57" value="si" style="text;html=1;align=center;verticalAlign=middle;resizable=0;points=[];autosize=1;strokeColor=none;fillColor=none;" vertex="1" parent="WIyWlLk6GJQsqaUBKTNV-1">
          <mxGeometry x="615" y="148" width="30" height="30" as="geometry" />
        </mxCell>
      </root>
    </mxGraphModel>
  </diagram>
</mxfile>
